<svg width="30" height="31" viewBox="0 0 30 31" fill="none" xmlns="http://www.w3.org/2000/svg">
<path d="M27.7817 0.000211012H2.21831C1.93095 -0.00377987 1.64563 0.0488742 1.37862 0.155166C1.11162 0.261459 0.868164 0.419307 0.662169 0.619696C0.456175 0.820085 0.291672 1.05909 0.178056 1.32306C0.0644402 1.58703 0.00393621 1.8708 0 2.15816V28.0233C0.00393621 28.3107 0.0644402 28.5945 0.178056 28.8584C0.291672 29.1224 0.456175 29.3614 0.662169 29.5618C0.868164 29.7622 1.11162 29.92 1.37862 30.0263C1.64563 30.1326 1.93095 30.1853 2.21831 30.1813H27.7817C28.069 30.1853 28.3544 30.1326 28.6214 30.0263C28.8884 29.92 29.1318 29.7622 29.3378 29.5618C29.5438 29.3614 29.7083 29.1224 29.8219 28.8584C29.9356 28.5945 29.9961 28.3107 30 28.0233V2.15816C29.9961 1.8708 29.9356 1.58703 29.8219 1.32306C29.7083 1.05909 29.5438 0.820085 29.3378 0.619696C29.1318 0.419307 28.8884 0.261459 28.6214 0.155166C28.3544 0.0488742 28.069 -0.00377987 27.7817 0.000211012ZM9.0996 25.2618H4.57243V11.6803H9.0996V25.2618ZM6.83602 9.77888C6.21166 9.77888 5.61288 9.53086 5.1714 9.08938C4.72991 8.64789 4.48189 8.04911 4.48189 7.42476C4.48189 6.80041 4.72991 6.20162 5.1714 5.76014C5.61288 5.31866 6.21166 5.07063 6.83602 5.07063C7.16755 5.03303 7.50328 5.06589 7.82124 5.16704C8.1392 5.26819 8.4322 5.43536 8.68107 5.6576C8.92994 5.87984 9.12906 6.15214 9.2654 6.45667C9.40174 6.7612 9.47221 7.0911 9.47221 7.42476C9.47221 7.75842 9.40174 8.08831 9.2654 8.39284C9.12906 8.69738 8.92994 8.96968 8.68107 9.19192C8.4322 9.41416 8.1392 9.58133 7.82124 9.68248C7.50328 9.78363 7.16755 9.81648 6.83602 9.77888ZM25.4276 25.2618H20.9004V17.973C20.9004 16.1471 20.2515 14.9549 18.6066 14.9549C18.0976 14.9587 17.6019 15.1183 17.1864 15.4124C16.7708 15.7065 16.4555 16.1209 16.2827 16.5998C16.1646 16.9545 16.1134 17.328 16.1318 17.7014V25.2467H11.6046C11.6046 25.2467 11.6046 12.9026 11.6046 11.6652H16.1318V13.5817C16.5431 12.8681 17.1412 12.2802 17.8618 11.8813C18.5825 11.4824 19.3982 11.2877 20.2213 11.3181C23.2394 11.3181 25.4276 13.2648 25.4276 17.4449V25.2618Z" fill="black"/>
</svg>
