<?xml version="1.0" encoding="utf-8"?>
<!-- Generator: Adobe Illustrator 27.0.1, SVG Export Plug-In . SVG Version: 6.00 Build 0)  -->
<svg version="1.1" xmlns="http://www.w3.org/2000/svg" xmlns:xlink="http://www.w3.org/1999/xlink" x="0px" y="0px" width="100" height="100"
	 viewBox="0 0 63.4 71.9" style="enable-background:new 0 0 63.4 71.9;" xml:space="preserve">
<style type="text/css">
	.st0{fill:none;stroke:#000000;stroke-width:0.25;stroke-miterlimit:10;}
	.st1{fill:none;stroke:#000000;stroke-width:0.4;stroke-miterlimit:10;}
	.st2{display:none;}
	.st3{display:inline;}
</style>
<g id="Layer_1">
	<path class="st0" d="M31.3,13.1h1c0.3,0,0.6,0.1,0.9,0.1c0.2,0,0.2,0.1,0.2,0.2c0.2,1.2,0.5,2.3,0.8,3.5c0,0.2,0.1,0.2,0.2,0.2
		c0.9,0.2,1.8,0.4,2.6,0.6c0.2,0,0.3,0,0.4-0.1c0.8-0.9,1.6-1.8,2.4-2.7c0.1-0.1,0.2-0.2,0.4-0.1c0.5,0.2,1,0.4,1.5,0.7
		c0.2,0.1,0.2,0.2,0.2,0.4c-0.2,1.2-0.4,2.3-0.6,3.5c0,0.1,0,0.2,0.1,0.3c0.8,0.5,1.5,1,2.3,1.5c0.1,0.1,0.2,0.1,0.3,0
		c1.1-0.6,2.2-1.1,3.2-1.7c0.2-0.1,0.2-0.1,0.4,0.1c0.4,0.4,0.8,0.8,1.2,1.2c0.1,0.1,0.1,0.2,0.1,0.4c-0.6,1-1.2,2.1-1.8,3.1
		c-0.1,0.1-0.1,0.2,0,0.3c0.5,0.7,1.1,1.5,1.6,2.2c0.1,0.1,0.2,0.2,0.3,0.1c1.2-0.1,2.4-0.3,3.6-0.4c0.1,0,0.2,0,0.3,0.1
		c0.3,0.6,0.6,1.2,0.9,1.9c-1,0.8-1.9,1.5-2.9,2.2c-0.2,0.2-0.2,0.3-0.2,0.5c0.2,0.8,0.4,1.7,0.6,2.5c0,0.2,0.1,0.2,0.2,0.2
		c1.2,0.3,2.4,0.6,3.5,0.9c0.1,0,0.2,0.1,0.2,0.3c0,0.6,0.1,1.1,0.1,1.7c0,0.2,0,0.3-0.2,0.3c-1.1,0.3-2.2,0.7-3.3,1
		c-0.2,0.1-0.3,0.1-0.3,0.4c-0.1,0.9-0.2,1.7-0.3,2.6c0,0.2,0,0.3,0.2,0.4c1,0.7,1.9,1.4,2.9,2.1c0.2,0.1,0.2,0.2,0.1,0.4
		c-0.2,0.5-0.4,1-0.5,1.6c-0.1,0.2-0.1,0.2-0.3,0.2c-1.2-0.1-2.4-0.1-3.5-0.2c-0.2,0-0.2,0-0.3,0.2c-0.4,0.8-0.9,1.6-1.3,2.4
		c-0.1,0.1-0.1,0.2,0,0.3c0.7,1,1.3,2.1,2,3.1c0.1,0.1,0.1,0.2,0,0.3c-0.4,0.4-0.7,0.9-1.1,1.3c-0.1,0.1-0.2,0.1-0.3,0.1
		c-1.1-0.5-2.1-1-3.2-1.5c-0.2-0.1-0.2-0.1-0.4,0.1c-0.7,0.6-1.4,1.2-2.1,1.7c-0.1,0.1-0.2,0.2-0.1,0.4c0.2,1.2,0.5,2.4,0.7,3.6
		c0,0.2,0,0.2-0.1,0.3c-0.5,0.3-0.9,0.5-1.4,0.8c-0.2,0.1-0.3,0.1-0.4-0.1c-0.8-0.9-1.6-1.7-2.4-2.5C39.6,56,39.5,56,39.3,56
		c-0.8,0.3-1.7,0.6-2.5,0.9c-0.2,0.1-0.2,0.1-0.3,0.3c-0.2,1.2-0.4,2.4-0.6,3.6c0,0.2-0.1,0.2-0.3,0.2c-0.6,0.1-1.1,0.1-1.6,0.2
		c-0.2,0-0.3,0-0.3-0.2c-0.4-1.1-0.9-2.2-1.4-3.3c-0.1-0.2-0.1-0.2-0.3-0.2c-0.9,0-1.8-0.1-2.7-0.1c-0.2,0-0.2,0.1-0.3,0.2
		c-0.6,1-1.2,2.1-1.8,3.1c-0.1,0.1-0.2,0.2-0.4,0.2c-0.5-0.1-1-0.3-1.6-0.4c-0.2,0-0.3-0.1-0.3-0.4c0-1.2-0.1-2.3-0.1-3.5
		c0-0.1,0-0.2-0.2-0.3c-0.9-0.4-1.7-0.7-2.6-1.1c-0.1-0.1-0.2,0-0.3,0.1c-0.2,0.2-0.4,0.4-0.6,0.5c-0.8,0.6-1.6,1.2-2.4,1.9
		c-0.6-0.4-1.1-0.7-1.6-1.1c-0.1-0.1-0.2-0.2-0.1-0.4c0.4-1.1,0.8-2.2,1.2-3.3c0.1-0.2,0-0.3-0.1-0.4c-0.6-0.6-1.3-1.2-1.9-1.9
		c-0.1-0.1-0.2-0.2-0.4-0.1c-1.1,0.4-2.3,0.7-3.4,1.1c-0.1,0-0.2,0-0.3,0c-0.4-0.5-0.8-1.1-1.1-1.6c0.1-0.1,0.1-0.2,0.2-0.3
		c0.8-0.9,1.5-1.8,2.3-2.6c0.1-0.1,0.1-0.2,0.1-0.3c-0.4-0.8-0.8-1.6-1.1-2.4c-0.1-0.2-0.2-0.2-0.3-0.2C11,44.1,9.8,44,8.6,44
		c-0.2,0-0.3-0.1-0.3-0.3c-0.1-0.5-0.2-1.1-0.4-1.6c-0.1-0.2,0-0.3,0.2-0.4c1-0.5,2.1-1.1,3.1-1.6c0.1-0.1,0.2-0.1,0.2-0.2
		c-0.1-0.9-0.1-1.9-0.2-2.8c0-0.1-0.1-0.2-0.1-0.2c-1.2-0.6-2.3-1.1-3.5-1.7c0-0.1,0-0.2,0-0.2c0-0.1,0-0.2,0.1-0.2
		c0.1-0.5,0.1-0.9,0.2-1.4c0-0.1,0.1-0.2,0.2-0.2c1.2-0.1,2.4-0.3,3.6-0.4c0.2,0,0.2-0.1,0.3-0.2c0.3-0.9,0.6-1.7,0.8-2.6
		c0.1-0.2,0-0.2-0.1-0.3c-0.8-0.9-1.7-1.8-2.5-2.7c-0.1-0.1-0.1-0.2,0-0.3c0.3-0.5,0.6-1,0.8-1.5c0.1-0.1,0.2-0.2,0.3-0.1
		c1.1,0.3,2.3,0.6,3.4,0.9c0.2,0,0.2,0,0.4-0.1c0.6-0.7,1.1-1.4,1.7-2.1c0.1-0.1,0.1-0.2,0.1-0.4c-0.5-1.1-0.9-2.2-1.4-3.4
		c-0.1-0.1,0-0.2,0.1-0.3c0.4-0.4,0.9-0.7,1.3-1.1c0.1-0.1,0.2-0.1,0.3,0c0.4,0.3,0.8,0.5,1.2,0.8c0.6,0.4,1.3,0.9,1.9,1.4
		c0.9-0.5,1.8-1,2.6-1.4c0.1,0,0.1-0.2,0.1-0.2c0-1.2,0-2.4-0.1-3.7c0-0.2,0-0.2,0.2-0.3c0.5-0.2,1.1-0.4,1.6-0.6
		c0.1-0.1,0.2,0,0.3,0.1c0.6,1,1.3,2,2,3c0.1,0.1,0.1,0.2,0.3,0.1c0.9-0.2,1.8-0.3,2.7-0.4c0.1,0,0.2-0.1,0.2-0.2
		c0.2-0.5,0.3-1,0.5-1.5C30.7,14.5,31.3,13.1,31.3,13.1z M31.3,53c8.7,0,15.9-7.1,15.9-15.8c0-8.8-7.1-15.9-15.8-16
		c-8.8,0-16,7.1-16,15.8C15.4,45.9,22.5,53,31.3,53L31.3,53z"/>
	<polyline class="st0" points="2.6,50.5 2.6,0.4 31.3,0.4 31.3,10 	"/>
	<circle cx="2.6" cy="52.4" r="2.4"/>
	<polyline class="st0" points="60,21.2 60,71.3 31.3,71.3 31.3,61.7 	"/>
	<polygon points="56.6,21.2 56.6,21.2 60,17.9 63.4,21.2 	"/>
	<circle cx="31.3" cy="37.1" r="2.4"/>
	<path class="st1" d="M31.3,13.1h1c0.3,0,0.6,0.1,0.9,0.1c0.2,0,0.2,0.1,0.2,0.2c0.2,1.2,0.5,2.3,0.8,3.5c0,0.2,0.1,0.2,0.2,0.2
		c0.9,0.2,1.8,0.4,2.6,0.6c0.2,0,0.3,0,0.4-0.1c0.8-0.9,1.6-1.8,2.4-2.7c0.1-0.1,0.2-0.2,0.4-0.1c0.5,0.2,1,0.4,1.5,0.7
		c0.2,0.1,0.2,0.2,0.2,0.4c-0.2,1.2-0.4,2.3-0.6,3.5c0,0.1,0,0.2,0.1,0.3c0.8,0.5,1.5,1,2.3,1.5c0.1,0.1,0.2,0.1,0.3,0
		c1.1-0.6,2.2-1.1,3.2-1.7c0.2-0.1,0.2-0.1,0.4,0.1c0.4,0.4,0.8,0.8,1.2,1.2c0.1,0.1,0.1,0.2,0.1,0.4c-0.6,1-1.2,2.1-1.8,3.1
		c-0.1,0.1-0.1,0.2,0,0.3c0.5,0.7,1.1,1.5,1.6,2.2c0.1,0.1,0.2,0.2,0.3,0.1c1.2-0.1,2.4-0.3,3.6-0.4c0.1,0,0.2,0,0.3,0.1
		c0.3,0.6,0.6,1.2,0.9,1.9c-1,0.8-1.9,1.5-2.9,2.2c-0.2,0.2-0.2,0.3-0.2,0.5c0.2,0.8,0.4,1.7,0.6,2.5c0,0.2,0.1,0.2,0.2,0.2
		c1.2,0.3,2.4,0.6,3.5,0.9c0.1,0,0.2,0.1,0.2,0.3c0,0.6,0.1,1.1,0.1,1.7c0,0.2,0,0.3-0.2,0.3c-1.1,0.3-2.2,0.7-3.3,1
		c-0.2,0.1-0.3,0.1-0.3,0.4c-0.1,0.9-0.2,1.7-0.3,2.6c0,0.2,0,0.3,0.2,0.4c1,0.7,1.9,1.4,2.9,2.1c0.2,0.1,0.2,0.2,0.1,0.4
		c-0.2,0.5-0.4,1-0.5,1.6c-0.1,0.2-0.1,0.2-0.3,0.2c-1.2-0.1-2.4-0.1-3.5-0.2c-0.2,0-0.2,0-0.3,0.2c-0.4,0.8-0.9,1.6-1.3,2.4
		c-0.1,0.1-0.1,0.2,0,0.3c0.7,1,1.3,2.1,2,3.1c0.1,0.1,0.1,0.2,0,0.3c-0.4,0.4-0.7,0.9-1.1,1.3c-0.1,0.1-0.2,0.1-0.3,0.1
		c-1.1-0.5-2.1-1-3.2-1.5c-0.2-0.1-0.2-0.1-0.4,0.1c-0.7,0.6-1.4,1.2-2.1,1.7c-0.1,0.1-0.2,0.2-0.1,0.4c0.2,1.2,0.5,2.4,0.7,3.6
		c0,0.2,0,0.2-0.1,0.3c-0.5,0.3-0.9,0.5-1.4,0.8c-0.2,0.1-0.3,0.1-0.4-0.1c-0.8-0.9-1.6-1.7-2.4-2.5C39.6,56,39.5,56,39.3,56
		c-0.8,0.3-1.7,0.6-2.5,0.9c-0.2,0.1-0.2,0.1-0.3,0.3c-0.2,1.2-0.4,2.4-0.6,3.6c0,0.2-0.1,0.2-0.3,0.2c-0.6,0.1-1.1,0.1-1.6,0.2
		c-0.2,0-0.3,0-0.3-0.2c-0.4-1.1-0.9-2.2-1.4-3.3c-0.1-0.2-0.1-0.2-0.3-0.2c-0.9,0-1.8-0.1-2.7-0.1c-0.2,0-0.2,0.1-0.3,0.2
		c-0.6,1-1.2,2.1-1.8,3.1c-0.1,0.1-0.2,0.2-0.4,0.2c-0.5-0.1-1-0.3-1.6-0.4c-0.2,0-0.3-0.1-0.3-0.4c0-1.2-0.1-2.3-0.1-3.5
		c0-0.1,0-0.2-0.2-0.3c-0.9-0.4-1.7-0.7-2.6-1.1c-0.1-0.1-0.2,0-0.3,0.1c-0.2,0.2-0.4,0.4-0.6,0.5c-0.8,0.6-1.6,1.2-2.4,1.9
		c-0.6-0.4-1.1-0.7-1.6-1.1c-0.1-0.1-0.2-0.2-0.1-0.4c0.4-1.1,0.8-2.2,1.2-3.3c0.1-0.2,0-0.3-0.1-0.4c-0.6-0.6-1.3-1.2-1.9-1.9
		c-0.1-0.1-0.2-0.2-0.4-0.1c-1.1,0.4-2.3,0.7-3.4,1.1c-0.1,0-0.2,0-0.3,0c-0.4-0.5-0.8-1.1-1.1-1.6c0.1-0.1,0.1-0.2,0.2-0.3
		c0.8-0.9,1.5-1.8,2.3-2.6c0.1-0.1,0.1-0.2,0.1-0.3c-0.4-0.8-0.8-1.6-1.1-2.4c-0.1-0.2-0.2-0.2-0.3-0.2C11,44.1,9.8,44,8.6,44
		c-0.2,0-0.3-0.1-0.3-0.3c-0.1-0.5-0.2-1.1-0.4-1.6c-0.1-0.2,0-0.3,0.2-0.4c1-0.5,2.1-1.1,3.1-1.6c0.1-0.1,0.2-0.1,0.2-0.2
		c-0.1-0.9-0.1-1.9-0.2-2.8c0-0.1-0.1-0.2-0.1-0.2c-1.2-0.6-2.3-1.1-3.5-1.7c0-0.1,0-0.2,0-0.2c0-0.1,0-0.2,0.1-0.2
		c0.1-0.5,0.1-0.9,0.2-1.4c0-0.1,0.1-0.2,0.2-0.2c1.2-0.1,2.4-0.3,3.6-0.4c0.2,0,0.2-0.1,0.3-0.2c0.3-0.9,0.6-1.7,0.8-2.6
		c0.1-0.2,0-0.2-0.1-0.3c-0.8-0.9-1.7-1.8-2.5-2.7c-0.1-0.1-0.1-0.2,0-0.3c0.3-0.5,0.6-1,0.8-1.5c0.1-0.1,0.2-0.2,0.3-0.1
		c1.1,0.3,2.3,0.6,3.4,0.9c0.2,0,0.2,0,0.4-0.1c0.6-0.7,1.1-1.4,1.7-2.1c0.1-0.1,0.1-0.2,0.1-0.4c-0.5-1.1-0.9-2.2-1.4-3.4
		c-0.1-0.1,0-0.2,0.1-0.3c0.4-0.4,0.9-0.7,1.3-1.1c0.1-0.1,0.2-0.1,0.3,0c0.4,0.3,0.8,0.5,1.2,0.8c0.6,0.4,1.3,0.9,1.9,1.4
		c0.9-0.5,1.8-1,2.6-1.4c0.1,0,0.1-0.2,0.1-0.2c0-1.2,0-2.4-0.1-3.7c0-0.2,0-0.2,0.2-0.3c0.5-0.2,1.1-0.4,1.6-0.6
		c0.1-0.1,0.2,0,0.3,0.1c0.6,1,1.3,2,2,3c0.1,0.1,0.1,0.2,0.3,0.1c0.9-0.2,1.8-0.3,2.7-0.4c0.1,0,0.2-0.1,0.2-0.2
		c0.2-0.5,0.3-1,0.5-1.5C30.7,14.5,31.3,13.1,31.3,13.1z"/>
</g>
<g id="Layer_2" class="st2">
</g>
</svg>
