<?xml version="1.0" encoding="utf-8"?>
<!-- Generator: Adobe Illustrator 27.0.1, SVG Export Plug-In . SVG Version: 6.00 Build 0)  -->
<svg version="1.1" xmlns="http://www.w3.org/2000/svg" xmlns:xlink="http://www.w3.org/1999/xlink" x="0px" y="0px" width="100" height="100"
	 viewBox="0 0 69.6 69.5" style="enable-background:new 0 0 69.6 69.5;" xml:space="preserve">
<style type="text/css">
	.st0{fill:none;stroke:#231F20;stroke-width:0.5;stroke-miterlimit:10;}
	.st1{fill:none;stroke:#000000;stroke-width:0.25;stroke-miterlimit:10;}
	.st2{opacity:0.1;enable-background:new    ;}
	.st3{opacity:0.1;}
	.st4{fill:none;stroke:#000000;stroke-width:0.5;stroke-miterlimit:10;}
	.st5{display:none;}
	.st6{display:inline;}
</style>
<g id="Ocean_Governance">
	<g>
		<circle class="st0" cx="34.9" cy="34.8" r="34.4"/>
		<path class="st1" d="M3.1,21.6c2.6-4.2,6.2-7.8,10.6-10.7C29.7,0.7,51,5.5,61.1,21.5c6,9.5,6.8,20.8,3.1,30.6"/>
		<path class="st1" d="M66.8,21.6c1.8,12.9-3.9,26.2-15.6,33.7c-16,10.2-37.3,5.4-47.4-10.6c-1.2-1.9-2.2-3.9-3-6"/>
		<path class="st1" d="M45.7,67.4c-11.4,0.1-22.6-5.6-29.2-15.9c-10.2-16-5.4-37.3,10.6-47.4c2.4-1.6,5-2.8,7.6-3.6"/>
		<path class="st1" d="M2.4,23.5c2.3-2.9,5.2-5.5,8.5-7.7c16-10.2,37.3-5.4,47.4,10.6c5.9,9.2,6.8,20.2,3.4,29.7"/>
		<path class="st2" d="M67.1,23c0.3,0.7,0.5,1.3,0.7,2c-1.2,0.8-2.5,1.5-3.7,2.1c-0.4-0.9-0.8-1.8-1.2-2.7
			C64.2,24,65.6,23.5,67.1,23z"/>
		<path class="st2" d="M67.8,25c0.2,0.6,0.3,1.1,0.5,1.7c-0.9,1.8-1.8,3.4-2.8,4.8c-0.4-1.5-0.9-2.9-1.4-4.4
			C65.3,26.4,66.6,25.7,67.8,25L67.8,25z"/>
		<path class="st2" d="M62.9,24.5c0.4,0.9,0.9,1.8,1.2,2.7c-10.4,5.6-20.3,7.8-25.9,7.5c-5.5-0.3-11.7-1.9-15,1.7
			c-3,3.3-1.6,8.8-4.1,9.8C17,47,4.7,42.6,0.9,40.4c-0.2-1.3-0.3-2.6-0.4-3.9c8.7,5.7,12.9,6,15,4.5c2.9-2.1,1-7.1,4.8-10.6
			c2.6-2.4,5.5-1.8,14.2-2.1c2.9-0.1,13.4-0.4,22.2-2.2C58.4,25.7,60.5,25.2,62.9,24.5L62.9,24.5z"/>
		<path class="st2" d="M64.1,27.1c0.6,1.4,1.1,2.9,1.4,4.4c-9.3,13.7-20.1,5.8-25.8,5.5c-5.5-0.3-10.3-0.8-13.6,2.8
			c-3,3.3-2.4,11-5,11.7c-3.9,1.1-15.7-5.8-19.4-8c-0.3-1.1-0.5-2.1-0.7-3.2c3.8,2.3,16.1,6.6,18.1,5.8c2.5-1,1.1-6.4,4.1-9.8
			c3.3-3.6,9.5-2,15-1.7C43.8,34.9,53.6,32.7,64.1,27.1L64.1,27.1z"/>
		<path class="st0" d="M64.4,52.3c-2.7,4.5-6.4,8.5-11.2,11.5C37.2,74,15.9,69.2,5.8,53.2c-2-3.1-3.4-6.4-4.2-9.8
			c-0.3-1.1-0.5-2.1-0.7-3.2c-0.2-1.3-0.3-2.6-0.4-3.9c-0.2-5.1,0.7-10.2,2.6-14.8c2.6-6.3,7.1-11.8,13.3-15.8
			c16-10.2,37.3-5.4,47.4,10.6c1.4,2.1,2.4,4.3,3.2,6.6c0.3,0.7,0.5,1.3,0.7,2c0.2,0.6,0.3,1.1,0.5,1.7C70.4,35.4,69,44.6,64.4,52.3
			L64.4,52.3z"/>
		<path class="st1" d="M3.1,21.6C3.1,21.6,3.2,21.5,3.1,21.6c2.7-4.2,6.2-7.8,10.6-10.6C29.7,0.8,51,5.6,61.1,21.6
			c0.6,0.9,1.2,1.9,1.6,2.9c0.4,0.9,0.9,1.8,1.2,2.7c0.6,1.4,1.1,2.9,1.4,4.4c1.8,6.9,1.3,14.2-1.2,20.7"/>
		<g class="st3">
			<path d="M2,45.1c0.2,0.7,0.4,1.4,0.7,2C4.2,47,5.6,46.8,7,46.5c-0.3-0.9-0.5-1.9-0.7-2.8C5,44.2,3.6,44.7,2,45.1z"/>
			<path d="M2.7,47.1c0.2,0.6,0.4,1.1,0.7,1.6c1.8,0.9,3.5,1.6,5.1,2.1C7.9,49.4,7.4,48,7,46.5C5.6,46.8,4.2,47,2.7,47.1L2.7,47.1z"
				/>
			<path d="M6.3,43.7c0.2,1,0.4,1.9,0.7,2.8c11.7-1.9,20.8-6.2,25.1-9.8c4.2-3.6,8.1-8.7,12.9-7.8c4.4,0.8,6.6,6,9.2,5.2
				c2.1-0.6,9.2-11.6,10.8-15.7c-0.6-1.2-1.3-2.2-2.1-3.3c-3.4,9.8-6.6,12.7-9.1,12.8c-3.6,0.1-5.1-5-10.3-5.4
				c-3.6-0.3-5.5,1.9-12.5,7c-2.4,1.7-10.9,7.9-18.9,11.8C10.6,41.9,8.6,42.8,6.3,43.7L6.3,43.7z"/>
			<path d="M7,46.5c0.4,1.5,0.9,2.9,1.5,4.3C24.2,56,28,43.1,32.3,39.4c4.2-3.6,7.7-6.9,12.5-6.1c4.4,0.8,8.6,7.2,11.1,6.2
				c3.8-1.5,8.9-14.2,10.5-18.2c-0.4-1-0.9-2-1.4-2.9c-1.6,4.1-8.7,15.1-10.8,15.7c-2.6,0.8-4.8-4.4-9.2-5.2
				c-4.9-0.8-8.8,4.2-12.9,7.8C27.8,40.3,18.6,44.6,7,46.5L7,46.5z"/>
		</g>
		<path class="st4" d="M22,66.7c4.9,2,10.3,2.8,15.9,2.3C56.8,67.3,70.7,50.6,69,31.7c-0.3-3.7-1.2-7.1-2.6-10.3
			c-0.4-1-0.9-2-1.4-2.9c-0.6-1.2-1.3-2.2-2.1-3.3C60,11,56.2,7.5,51.8,5c-5.9-3.4-12.9-5.1-20.1-4.4C12.8,2.3-1.1,19,0.5,37.9
			c0.2,2.5,0.7,4.9,1.4,7.2c0.2,0.7,0.4,1.4,0.7,2c0.2,0.6,0.4,1.1,0.7,1.6C7,57,13.7,63.4,22,66.7L22,66.7z"/>
		<path class="st1" d="M51.9,5L51.9,5C47.2,3.3,42.2,2.6,37,3.1C18.1,4.8,4.2,21.5,5.8,40.4c0.1,1.1,0.3,2.2,0.5,3.3
			c0.2,1,0.4,1.9,0.7,2.8c0.4,1.5,0.9,2.9,1.5,4.3c2.8,6.6,7.6,12,13.6,15.7"/>
	</g>
</g>
<g id="Layer_2" class="st5">
</g>
</svg>
