<?xml version="1.0" encoding="utf-8"?>
<!-- Generator: Adobe Illustrator 27.0.1, SVG Export Plug-In . SVG Version: 6.00 Build 0)  -->
<svg version="1.1" xmlns="http://www.w3.org/2000/svg" xmlns:xlink="http://www.w3.org/1999/xlink" x="0px" y="0px" 
	 viewBox="0 0 125.4 67" style="enable-background:new 0 0 125.4 67;" xml:space="preserve">
<style type="text/css">
	.st0{fill:none;stroke:#000000;stroke-width:0.4;stroke-miterlimit:10;}
	.st1{fill:none;stroke:#000000;stroke-width:0.25;stroke-miterlimit:10;}
	.st2{fill:#010101;}
	.st3{fill:none;stroke:#010101;stroke-width:0.25;stroke-linecap:round;stroke-linejoin:round;}
	.st4{fill:none;stroke:#FFFFFF;stroke-width:0.25;stroke-linecap:round;stroke-linejoin:round;stroke-dasharray:0,0,1,1;}
	.st5{fill:none;stroke:#525252;stroke-width:0.1;stroke-linecap:round;stroke-linejoin:round;}
	.st6{fill:none;stroke:#666766;stroke-width:0.15;stroke-linecap:round;stroke-linejoin:round;}
	.st7{display:none;}
	.st8{display:inline;}
</style>
<g id="Ethical_Technology">
	<polyline class="st0" points="111.8,40.9 103.4,32.5 95.9,32.5 	"/>
	<line class="st1" x1="112.1" y1="40.5" x2="112.1" y2="53.7"/>
	<line class="st1" x1="125.4" y1="53.7" x2="112.1" y2="40.5"/>
	<line class="st1" x1="98.9" y1="53.7" x2="112.1" y2="40.5"/>
	<path d="M98.9,53.7h26.5c0,7.3-5.9,13.3-13.3,13.3S98.9,61,98.9,53.7L98.9,53.7z"/>
	<path d="M112.1,42.1c-0.9,0-1.6-0.7-1.6-1.6s0.7-1.6,1.6-1.6s1.6,0.7,1.6,1.6S113,42.1,112.1,42.1z"/>
	<polyline class="st0" points="13.5,40.9 21.9,32.5 29.4,32.5 	"/>
	<line class="st1" x1="13.2" y1="40.5" x2="13.2" y2="53.7"/>
	<line class="st1" x1="0" y1="53.7" x2="13.2" y2="40.5"/>
	<line class="st1" x1="26.5" y1="53.7" x2="13.2" y2="40.5"/>
	<path d="M26.5,53.7H0C0,61,5.9,67,13.3,67S26.5,61,26.5,53.7L26.5,53.7z"/>
	<circle cx="13.2" cy="40.5" r="1.6"/>
	<g>
		<polygon class="st2" points="79.4,24.3 81.6,42.7 61.4,27.8 61.8,9.8 		"/>
		<polygon class="st2" points="81.6,42.7 61.7,55 41.4,42.7 61.4,27.8 		"/>
		<polygon class="st2" points="61.8,9.8 61.4,27.8 41.4,42.7 44.4,24.2 		"/>
	</g>
	<g>
		<line class="st3" x1="61.4" y1="27.8" x2="61.8" y2="9.8"/>
		<line class="st3" x1="44.4" y1="24.2" x2="61.8" y2="9.8"/>
		<line class="st3" x1="81.6" y1="42.7" x2="79.4" y2="24.3"/>
		<line class="st3" x1="61.8" y1="9.8" x2="79.4" y2="24.3"/>
		<line class="st3" x1="81.6" y1="42.7" x2="61.7" y2="55"/>
		<line class="st3" x1="61.7" y1="55" x2="41.4" y2="42.7"/>
		<line class="st3" x1="41.4" y1="42.7" x2="61.4" y2="27.8"/>
		<line class="st3" x1="61.4" y1="27.8" x2="81.6" y2="42.7"/>
		<line class="st3" x1="41.4" y1="42.7" x2="44.4" y2="24.2"/>
	</g>
	<g>
		<line class="st4" x1="61.4" y1="27.9" x2="61.8" y2="9.9"/>
		<line class="st4" x1="44.4" y1="24.3" x2="61.8" y2="9.9"/>
		<line class="st4" x1="41.4" y1="42.8" x2="44.4" y2="24.3"/>
		<line class="st4" x1="81.6" y1="42.8" x2="79.4" y2="24.4"/>
		<line class="st4" x1="61.8" y1="9.9" x2="79.4" y2="24.4"/>
		<line class="st4" x1="81.6" y1="42.8" x2="61.7" y2="55.2"/>
		<line class="st4" x1="61.7" y1="55.2" x2="41.4" y2="42.8"/>
		<line class="st4" x1="41.4" y1="42.8" x2="61.4" y2="27.9"/>
		<line class="st4" x1="61.4" y1="27.9" x2="81.6" y2="42.8"/>
		<line class="st4" x1="41.4" y1="42.8" x2="44.4" y2="24.3"/>
	</g>
	<line class="st5" x1="83.1" y1="33.4" x2="79.5" y2="18.5"/>
	<line class="st5" x1="38.8" y1="14.1" x2="48.1" y2="5.7"/>
	<line class="st5" x1="48.1" y1="5.7" x2="50.1" y2="12.7"/>
	<line class="st5" x1="54.6" y1="0.6" x2="60" y2="4.1"/>
	<line class="st5" x1="60" y1="4.1" x2="48.1" y2="5.7"/>
	<line class="st5" x1="38.8" y1="14.1" x2="42.1" y2="6.6"/>
	<line class="st5" x1="90.5" y1="24.2" x2="85.1" y2="13"/>
	<line class="st5" x1="74.4" y1="6.8" x2="85.1" y2="13"/>
	<line class="st5" x1="85.1" y1="13" x2="79.5" y2="18.5"/>
	<line class="st5" x1="74.4" y1="6.8" x2="79.5" y2="18.5"/>
	<line class="st5" x1="44.3" y1="51.1" x2="35.1" y2="49.6"/>
	<line class="st5" x1="44.3" y1="51.1" x2="44.8" y2="60"/>
	<line class="st5" x1="36" y1="38.6" x2="35.1" y2="49.6"/>
	<line class="st5" x1="44.8" y1="60" x2="56.1" y2="60.2"/>
	<line class="st5" x1="60" y1="4.1" x2="68.8" y2="0.4"/>
	<line class="st5" x1="74.4" y1="6.8" x2="68.8" y2="0.4"/>
	<line class="st5" x1="68.8" y1="0.4" x2="82.1" y2="6"/>
	<line class="st5" x1="68.8" y1="0.4" x2="54.6" y2="0.6"/>
	<line class="st5" x1="74.4" y1="6.8" x2="82.1" y2="6"/>
	<line class="st5" x1="60" y1="4.1" x2="50.1" y2="12.7"/>
	<line class="st5" x1="96.1" y1="29.9" x2="91.6" y2="16.3"/>
	<line class="st5" x1="91.6" y1="16.3" x2="90.5" y2="24.2"/>
	<line class="st5" x1="48.1" y1="5.7" x2="54.6" y2="0.6"/>
	<line class="st5" x1="42.1" y1="6.6" x2="48.1" y2="5.7"/>
	<line class="st5" x1="38.8" y1="14.1" x2="40.9" y2="25"/>
	<line class="st5" x1="32" y1="26.7" x2="40.9" y2="25"/>
	<line class="st5" x1="40.9" y1="25" x2="36" y2="38.6"/>
	<line class="st5" x1="44.7" y1="32.8" x2="40.9" y2="25"/>
	<line class="st5" x1="46.9" y1="24.9" x2="40.9" y2="25"/>
	<line class="st5" x1="40.9" y1="25" x2="50.1" y2="12.7"/>
	<line class="st5" x1="38.8" y1="14.1" x2="32" y2="26.7"/>
	<line class="st5" x1="50.1" y1="12.7" x2="38.8" y2="14.1"/>
	<line class="st5" x1="49.5" y1="64.2" x2="55.7" y2="65.3"/>
	<line class="st5" x1="55.7" y1="65.3" x2="62.9" y2="67"/>
	<line class="st5" x1="55.7" y1="65.3" x2="67.5" y2="64.7"/>
	<line class="st5" x1="56.1" y1="60.2" x2="55.7" y2="65.3"/>
	<line class="st5" x1="62.9" y1="67" x2="67.5" y2="64.7"/>
	<line class="st5" x1="44.8" y1="60" x2="49.5" y2="64.2"/>
	<line class="st5" x1="76.5" y1="64.2" x2="67.5" y2="64.7"/>
	<line class="st5" x1="80.5" y1="58.9" x2="76.5" y2="64.2"/>
	<line class="st5" x1="80.5" y1="58.9" x2="67.5" y2="64.7"/>
	<line class="st5" x1="85.1" y1="13" x2="91.6" y2="16.3"/>
	<line class="st5" x1="85.1" y1="13" x2="82.1" y2="6"/>
	<line class="st5" x1="91.6" y1="16.3" x2="82.1" y2="6"/>
	<line class="st5" x1="79.5" y1="18.5" x2="90.5" y2="24.2"/>
	<line class="st5" x1="70.1" y1="56.4" x2="56.1" y2="60.2"/>
	<line class="st5" x1="70.1" y1="56.4" x2="67.5" y2="64.7"/>
	<line class="st5" x1="80.5" y1="58.9" x2="70.1" y2="56.4"/>
	<line class="st5" x1="70.1" y1="56.4" x2="83" y2="48.1"/>
	<line class="st5" x1="70.1" y1="56.4" x2="70.9" y2="48.9"/>
	<line class="st5" x1="64.1" y1="52.9" x2="70.1" y2="56.4"/>
	<line class="st5" x1="56.1" y1="60.2" x2="67.5" y2="64.7"/>
	<line class="st5" x1="80.5" y1="58.9" x2="83" y2="48.1"/>
	<line class="st5" x1="57.3" y1="51.7" x2="56.1" y2="60.2"/>
	<line class="st5" x1="44.3" y1="51.1" x2="53.9" y2="49.7"/>
	<line class="st5" x1="44.3" y1="51.1" x2="45.8" y2="44.8"/>
	<line class="st5" x1="36" y1="38.6" x2="44.3" y2="51.1"/>
	<line class="st5" x1="56.1" y1="60.2" x2="44.3" y2="51.1"/>
	<line class="st5" x1="43.9" y1="38.2" x2="36" y2="38.6"/>
	<line class="st5" x1="35.1" y1="49.6" x2="44.8" y2="60"/>
	<line class="st5" x1="32" y1="26.7" x2="33" y2="17.4"/>
	<line class="st5" x1="33" y1="17.4" x2="38.8" y2="14.1"/>
	<line class="st5" x1="60" y1="4.1" x2="74.4" y2="6.8"/>
	<line class="st5" x1="83" y1="48.1" x2="92.1" y2="38.7"/>
	<line class="st5" x1="96.1" y1="29.9" x2="92.1" y2="38.7"/>
	<line class="st5" x1="96.1" y1="29.9" x2="94.8" y2="44"/>
	<line class="st5" x1="90.5" y1="24.2" x2="92.1" y2="38.7"/>
	<line class="st5" x1="89.4" y1="50.3" x2="83" y2="48.1"/>
	<line class="st5" x1="80.5" y1="58.9" x2="89.4" y2="50.3"/>
	<line class="st5" x1="80.5" y1="58.9" x2="87.9" y2="55.9"/>
	<line class="st5" x1="30.5" y1="38.3" x2="35.1" y2="49.6"/>
	<line class="st5" x1="55.7" y1="65.3" x2="44.8" y2="60"/>
	<line class="st5" x1="74.4" y1="6.8" x2="64.9" y2="13.7"/>
	<line class="st5" x1="64.9" y1="13.7" x2="60" y2="4.1"/>
	<line class="st5" x1="83.1" y1="33.4" x2="92.1" y2="38.7"/>
	<line class="st5" x1="50.1" y1="12.7" x2="64.9" y2="13.7"/>
	<line class="st5" x1="64.3" y1="14.4" x2="64.9" y2="13.7"/>
	<line class="st5" x1="64.9" y1="13.7" x2="65.4" y2="15"/>
	<line class="st5" x1="79.5" y1="18.5" x2="64.9" y2="13.7"/>
	<line class="st5" x1="50.1" y1="12.7" x2="52.9" y2="20"/>
	<line class="st5" x1="74.9" y1="22.9" x2="79.5" y2="18.5"/>
	<line class="st5" x1="38.1" y1="56.2" x2="44.8" y2="60"/>
	<line class="st5" x1="38.1" y1="56.2" x2="35.1" y2="49.6"/>
	<line class="st5" x1="83.1" y1="33.4" x2="83" y2="48.1"/>
	<line class="st5" x1="90.5" y1="24.2" x2="83.1" y2="33.4"/>
	<line class="st5" x1="83.1" y1="33.4" x2="79.3" y2="31.8"/>
	<line class="st5" x1="79.7" y1="36.2" x2="83.1" y2="33.4"/>
	<line class="st5" x1="76.8" y1="45.3" x2="83" y2="48.1"/>
	<g>
		<line class="st6" x1="47.3" y1="38.1" x2="44.7" y2="32.8"/>
		<line class="st6" x1="54.6" y1="24.7" x2="46.9" y2="24.9"/>
		<line class="st6" x1="54.6" y1="24.7" x2="60" y2="36.8"/>
		<line class="st6" x1="60" y1="36.8" x2="47.3" y2="38.1"/>
		<line class="st6" x1="60" y1="36.8" x2="57.7" y2="49.2"/>
		<line class="st6" x1="71.5" y1="42.9" x2="60" y2="36.8"/>
		<line class="st6" x1="60" y1="36.8" x2="69.7" y2="27.7"/>
		<line class="st6" x1="54.6" y1="24.7" x2="47.3" y2="38.1"/>
		<line class="st6" x1="69.7" y1="27.7" x2="54.6" y2="24.7"/>
		<line class="st6" x1="70.9" y1="48.9" x2="71.5" y2="42.9"/>
		<line class="st6" x1="57.7" y1="49.2" x2="64.1" y2="52.9"/>
		<line class="st6" x1="71.5" y1="42.9" x2="57.7" y2="49.2"/>
		<line class="st6" x1="57.7" y1="49.2" x2="57.3" y2="51.7"/>
		<line class="st6" x1="53.9" y1="49.7" x2="57.7" y2="49.2"/>
		<line class="st6" x1="45.8" y1="44.8" x2="47.3" y2="38.1"/>
		<line class="st6" x1="57.7" y1="49.2" x2="47.3" y2="38.1"/>
		<line class="st6" x1="47.3" y1="38.1" x2="43.9" y2="38.2"/>
		<line class="st6" x1="54.6" y1="24.7" x2="64.3" y2="14.4"/>
		<line class="st6" x1="65.4" y1="15" x2="69.7" y2="27.7"/>
		<line class="st6" x1="52.9" y1="20" x2="54.6" y2="24.7"/>
		<line class="st6" x1="69.7" y1="27.7" x2="74.9" y2="22.9"/>
		<line class="st6" x1="79.3" y1="31.8" x2="69.7" y2="27.7"/>
		<line class="st6" x1="71.5" y1="42.9" x2="79.7" y2="36.2"/>
		<line class="st6" x1="69.7" y1="27.7" x2="71.5" y2="42.9"/>
		<line class="st6" x1="71.5" y1="42.9" x2="76.8" y2="45.3"/>
	</g>
	<line class="st5" x1="90.5" y1="24.2" x2="96.1" y2="29.9"/>
	<line class="st5" x1="92.1" y1="38.7" x2="94.8" y2="44"/>
	<line class="st5" x1="94.8" y1="44" x2="89.4" y2="50.3"/>
	<line class="st5" x1="89.4" y1="50.3" x2="92.1" y2="38.7"/>
	<line class="st5" x1="89.4" y1="50.3" x2="87.9" y2="55.9"/>
	<line class="st5" x1="30.9" y1="44.3" x2="30.5" y2="38.3"/>
	<line class="st5" x1="30.5" y1="38.3" x2="36" y2="38.6"/>
	<line class="st5" x1="32" y1="26.7" x2="30.5" y2="38.3"/>
	<line class="st5" x1="30.5" y1="38.3" x2="29.1" y2="30.7"/>
	<line class="st5" x1="30.9" y1="44.3" x2="35.1" y2="49.6"/>
	<line class="st5" x1="36" y1="38.6" x2="32" y2="26.7"/>
	<line class="st5" x1="32" y1="26.7" x2="29.1" y2="30.7"/>
	<polygon class="st5" points="95.7,35.6 96.1,29.9 94.2,22.3 91.6,16.3 87.1,10.5 82.1,6 75.9,2.6 68.8,0.4 62.8,0 54.6,0.6 
		42.1,6.6 33,17.4 29.1,30.7 30.9,44.3 38.1,56.2 49.5,64.2 62.9,67 76.5,64.2 87.9,55.9 94.8,44 	"/>
	<polygon class="st0" points="95.7,35.6 96.1,29.9 94.2,22.3 91.6,16.3 87.1,10.5 82.1,6 75.9,2.6 68.8,0.4 62.8,0 54.6,0.6 
		42.1,6.6 33,17.4 29.1,30.7 30.9,44.3 38.1,56.2 49.5,64.2 62.9,67 76.5,64.2 87.9,55.9 94.8,44 	"/>
</g>
<g id="Layer_2" class="st7">
</g>
</svg>
