<?xml version="1.0" encoding="utf-8"?>
<!-- Generator: Adobe Illustrator 27.0.1, SVG Export Plug-In . SVG Version: 6.00 Build 0)  -->
<svg version="1.1" xmlns="http://www.w3.org/2000/svg" xmlns:xlink="http://www.w3.org/1999/xlink" x="0px" y="0px" width="100" height="100"
	 viewBox="0 0 71.5 65.9" style="enable-background:new 0 0 71.5 65.9;" xml:space="preserve">
<style type="text/css">
	.st0{fill:none;stroke:#000000;stroke-width:0.4;stroke-miterlimit:10;}
	.st1{fill:none;stroke:#000000;stroke-width:0.75;stroke-miterlimit:10;}
	.st2{stroke:#000000;stroke-width:0.25;stroke-miterlimit:10;}
	.st3{display:none;}
	.st4{display:inline;}
</style>
<g id="Information_at_Hand">
	<path class="st0" d="M11.1,38.3c-1-2.8-1.5-5.7-1.5-8.8c0-11,6.7-20.4,16.2-24.4"/>
	<path class="st0" d="M36.1,3.1c14.6,0,26.5,11.8,26.5,26.5S50.7,56,36.1,56c-6.6,0-12.6-2.4-17.3-6.4"/>
	<path class="st0" d="M24.3,2.9c2.9-1.3,6.1-2.1,9.5-2.4c12-0.9,22.9,5.6,28.1,15.6"/>
	<path class="st0" d="M43.4,57.7c-1.6,0.4-3.4,0.7-5.1,0.9c-16,1.3-30-10.7-31.3-26.7c-0.6-7.2,1.6-14.1,5.6-19.5"/>
	<path class="st0" d="M65.1,27.2c0.8,10.4-4,20-11.9,25.8"/>
	<path class="st0" d="M33.7,61.9c-1.9-0.1-3.8-0.5-5.6-1C11,56.4,0.8,38.9,5.3,21.8c2-7.7,6.7-14.1,12.8-18.2"/>
	<path class="st0" d="M36.1,3.1c14.6,0,26.5,11.8,26.5,26.5S50.7,56,36.1,56c-6.6,0-12.6-2.4-17.3-6.4"/>
	<path class="st0" d="M1.5,38.9C0.7,36,0.4,33,0.4,30c0-8.8,3.2-16.9,8.6-23.1"/>
	<path class="st0" d="M56.7,58.3c-5.9,4.4-13.1,6.9-21,6.9c-6.3,0-12.3-1.7-17.4-4.6"/>
	<path class="st0" d="M71,29.9c0,6.4-1.7,12.5-4.7,17.7"/>
	<line class="st1" x1="35.8" y1="26.7" x2="35.8" y2="38.5"/>
	<circle class="st2" cx="35.8" cy="22" r="1.2"/>
</g>
<g id="Layer_2" class="st3">
</g>
</svg>
