<?xml version="1.0" encoding="utf-8"?>
<!-- Generator: Adobe Illustrator 27.0.1, SVG Export Plug-In . SVG Version: 6.00 Build 0)  -->
<svg version="1.1" xmlns="http://www.w3.org/2000/svg" xmlns:xlink="http://www.w3.org/1999/xlink" x="0px" y="0px" width="100" height="100"
	 viewBox="0 0 74.7 62.2" style="enable-background:new 0 0 74.7 62.2;" xml:space="preserve">
<style type="text/css">
	.st0{fill:none;stroke:#231F20;stroke-width:0.25;stroke-miterlimit:10;}
	.st1{fill:none;stroke:#000000;stroke-width:0.25;stroke-miterlimit:10;}
	.st2{clip-path:url(#SVGID_00000116217189386492369660000011943615857693271173_);}
	.st3{display:none;}
	.st4{display:inline;}
</style>
<g id="Layer_2_00000107582370973599631120000011200592380630447492_">
	<circle class="st0" cx="24.7" cy="36.8" r="23"/>
	<g>
		<path class="st1" d="M29.1,14.2c0.3-0.6,0.6-1.1,1-1.6C37.3,2.2,51.6-0.5,62,6.7s13.1,21.5,5.9,31.9c-5.3,7.8-14.6,11.2-23.3,9.6
			c-3-0.6-5.9-1.8-8.6-3.6C26.1,37.7,23.2,24.5,29.1,14.2L29.1,14.2z"/>
		<path class="st1" d="M44.7,48.2c-0.3,0.6-0.6,1.1-1,1.6c-7.2,10.5-21.5,13.1-31.9,5.9S-1.3,34.2,5.9,23.8
			c5.3-7.8,14.6-11.2,23.3-9.6c3,0.6,5.9,1.8,8.6,3.6C47.7,24.7,50.6,37.9,44.7,48.2L44.7,48.2z"/>
	</g>
	<path class="st1" d="M44,0.9c1.6-0.3,3.4-0.5,5.1-0.5c14,0,25.3,11.3,25.3,25.3c0,5.2-1.6,10.1-4.3,14.1"/>
	<path class="st1" d="M43,54.4c-9.9,9.9-25.9,9.9-35.8,0c-3.7-3.7-6-8.3-6.9-13.1"/>
	<g>
		<g>
			<defs>
				<circle id="SVGID_1_" cx="24.7" cy="36.8" r="23"/>
			</defs>
			<clipPath id="SVGID_00000178926145517900814300000000208477100807584182_">
				<use xlink:href="#SVGID_1_"  style="overflow:visible;"/>
			</clipPath>
			<g style="clip-path:url(#SVGID_00000178926145517900814300000000208477100807584182_);">
				<g>
					<line class="st1" x1="6.5" y1="27" x2="20.6" y2="6.5"/>
					<line class="st1" x1="8.6" y1="31.8" x2="24.6" y2="8.6"/>
					<line class="st1" x1="10.7" y1="36.6" x2="28.5" y2="10.7"/>
					<line class="st1" x1="12.8" y1="41.4" x2="32.4" y2="12.9"/>
					<line class="st1" x1="14.9" y1="46.1" x2="36.3" y2="15"/>
					<line class="st1" x1="17" y1="50.9" x2="40.2" y2="17.1"/>
					<line class="st1" x1="19.1" y1="55.7" x2="44.1" y2="19.2"/>
					<line class="st1" x1="21.2" y1="60.5" x2="48.1" y2="21.3"/>
					<line class="st1" x1="23.3" y1="65.3" x2="52" y2="23.4"/>
					<line class="st1" x1="25.4" y1="70" x2="55.9" y2="25.5"/>
				</g>
			</g>
		</g>
	</g>
	<path d="M44.7,48.2c-0.3,0.6-0.6,1.1-1,1.6c-7.2,10.5-21.5,13.1-31.9,5.9S-1.3,34.2,5.9,23.8c5.3-7.8,14.6-11.2,23.3-9.6
		c-5.9,10.3-3,23.5,6.9,30.3C38.7,46.4,41.7,47.6,44.7,48.2L44.7,48.2z"/>
</g>
<g id="Layer_3" class="st3">
</g>
</svg>
