<svg width="25" height="21" viewBox="0 0 25 21" fill="none" xmlns="http://www.w3.org/2000/svg">
<path d="M25 2.47101C24.0604 2.88411 23.0668 3.15719 22.05 3.28176C23.1227 2.6323 23.9266 1.61058 24.3125 0.406135C23.3044 1.01428 22.201 1.44275 21.05 1.67293C20.2807 0.827436 19.2562 0.26463 18.1373 0.0727796C17.0183 -0.11907 15.8682 0.0708883 14.8672 0.612863C13.8663 1.15484 13.0712 2.01817 12.6066 3.06747C12.1419 4.11676 12.0341 5.29266 12.3 6.41075C10.2618 6.30627 8.26805 5.76843 6.44832 4.83215C4.62859 3.89587 3.02356 2.5821 1.7375 0.976194C1.28642 1.77449 1.0494 2.67854 1.05 3.59846C1.0484 4.45277 1.25527 5.29422 1.65219 6.0479C2.04912 6.80157 2.62377 7.44409 3.325 7.91824C2.50997 7.89577 1.71236 7.67413 1 7.27217V7.33551C1.00611 8.5325 1.41999 9.6906 2.17164 10.6139C2.92329 11.5373 3.96657 12.1692 5.125 12.4027C4.67907 12.5402 4.21609 12.6127 3.75 12.6181C3.42736 12.6142 3.10553 12.5846 2.7875 12.5294C3.11739 13.559 3.75578 14.4589 4.61384 15.1037C5.47191 15.7485 6.50697 16.1062 7.575 16.1271C5.7715 17.5652 3.54485 18.3501 1.25 18.3566C0.832169 18.358 0.41467 18.3326 0 18.2806C2.34304 19.8138 5.07352 20.6277 7.8625 20.6242C9.78712 20.6445 11.6964 20.2759 13.4789 19.5399C15.2614 18.804 16.8813 17.7155 18.244 16.338C19.6067 14.9605 20.685 13.3216 21.4157 11.5171C22.1464 9.71256 22.515 7.77855 22.5 5.82802C22.5 5.61267 22.5 5.38465 22.5 5.15662C23.4809 4.41531 24.3268 3.50653 25 2.47101Z" fill="black"/>
</svg>
